<mxfile host="app.diagrams.net" agent="Mozilla/5.0 (Windows NT 10.0; Win64; x64) AppleWebKit/537.36 (KHTML, like Gecko) Chrome/116.0.0.0 Safari/537.36" version="26.0.16">
  <diagram name="第 1 页" id="NQEf47WvhXZKwdAwDiqe">
    <mxGraphModel dx="1259" dy="673" grid="1" gridSize="10" guides="1" tooltips="1" connect="1" arrows="1" fold="1" page="1" pageScale="1" pageWidth="827" pageHeight="1169" math="0" shadow="0">
      <root>
        <mxCell id="0" />
        <mxCell id="1" parent="0" />
        <mxCell id="9Gnq12phPFpCPruZLT1S-5" value="" style="edgeStyle=orthogonalEdgeStyle;rounded=0;orthogonalLoop=1;jettySize=auto;html=1;" edge="1" parent="1" source="9Gnq12phPFpCPruZLT1S-2" target="9Gnq12phPFpCPruZLT1S-4">
          <mxGeometry relative="1" as="geometry" />
        </mxCell>
        <mxCell id="9Gnq12phPFpCPruZLT1S-2" value="进入搜索首页" style="rounded=1;whiteSpace=wrap;html=1;" vertex="1" parent="1">
          <mxGeometry x="280" y="70" width="120" height="60" as="geometry" />
        </mxCell>
        <mxCell id="9Gnq12phPFpCPruZLT1S-7" value="" style="edgeStyle=orthogonalEdgeStyle;rounded=0;orthogonalLoop=1;jettySize=auto;html=1;" edge="1" parent="1" source="9Gnq12phPFpCPruZLT1S-4" target="9Gnq12phPFpCPruZLT1S-6">
          <mxGeometry relative="1" as="geometry" />
        </mxCell>
        <mxCell id="9Gnq12phPFpCPruZLT1S-9" value="" style="edgeStyle=orthogonalEdgeStyle;rounded=0;orthogonalLoop=1;jettySize=auto;html=1;" edge="1" parent="1" source="9Gnq12phPFpCPruZLT1S-4" target="9Gnq12phPFpCPruZLT1S-8">
          <mxGeometry relative="1" as="geometry" />
        </mxCell>
        <mxCell id="9Gnq12phPFpCPruZLT1S-4" value="客户端缓存过期？" style="rhombus;whiteSpace=wrap;html=1;rounded=1;" vertex="1" parent="1">
          <mxGeometry x="255" y="170" width="170" height="80" as="geometry" />
        </mxCell>
        <mxCell id="9Gnq12phPFpCPruZLT1S-14" value="" style="edgeStyle=orthogonalEdgeStyle;rounded=0;orthogonalLoop=1;jettySize=auto;html=1;" edge="1" parent="1" source="9Gnq12phPFpCPruZLT1S-6">
          <mxGeometry relative="1" as="geometry">
            <mxPoint x="340" y="500" as="targetPoint" />
          </mxGeometry>
        </mxCell>
        <mxCell id="9Gnq12phPFpCPruZLT1S-6" value="入参携带needCache的榜单id" style="whiteSpace=wrap;html=1;rounded=1;" vertex="1" parent="1">
          <mxGeometry x="50" y="330" width="120" height="60" as="geometry" />
        </mxCell>
        <mxCell id="9Gnq12phPFpCPruZLT1S-19" style="edgeStyle=orthogonalEdgeStyle;rounded=0;orthogonalLoop=1;jettySize=auto;html=1;entryX=0.5;entryY=0;entryDx=0;entryDy=0;" edge="1" parent="1" source="9Gnq12phPFpCPruZLT1S-8">
          <mxGeometry relative="1" as="geometry">
            <mxPoint x="340" y="500" as="targetPoint" />
            <Array as="points">
              <mxPoint x="340" y="360" />
            </Array>
          </mxGeometry>
        </mxCell>
        <mxCell id="9Gnq12phPFpCPruZLT1S-8" value="不用携带榜单id" style="whiteSpace=wrap;html=1;rounded=1;" vertex="1" parent="1">
          <mxGeometry x="510" y="320" width="120" height="60" as="geometry" />
        </mxCell>
        <mxCell id="9Gnq12phPFpCPruZLT1S-31" value="" style="edgeStyle=orthogonalEdgeStyle;rounded=0;orthogonalLoop=1;jettySize=auto;html=1;" edge="1" parent="1" source="9Gnq12phPFpCPruZLT1S-18" target="9Gnq12phPFpCPruZLT1S-30">
          <mxGeometry relative="1" as="geometry" />
        </mxCell>
        <mxCell id="9Gnq12phPFpCPruZLT1S-18" value="遍历组装所有榜单" style="whiteSpace=wrap;html=1;rounded=1;" vertex="1" parent="1">
          <mxGeometry x="540" y="650" width="120" height="60" as="geometry" />
        </mxCell>
        <mxCell id="9Gnq12phPFpCPruZLT1S-20" value="时间戳 or 过期时间" style="text;html=1;align=center;verticalAlign=middle;resizable=0;points=[];autosize=1;strokeColor=none;fillColor=none;" vertex="1" parent="1">
          <mxGeometry x="740" y="555" width="120" height="30" as="geometry" />
        </mxCell>
        <mxCell id="9Gnq12phPFpCPruZLT1S-25" style="edgeStyle=orthogonalEdgeStyle;rounded=0;orthogonalLoop=1;jettySize=auto;html=1;" edge="1" parent="1" source="9Gnq12phPFpCPruZLT1S-21">
          <mxGeometry relative="1" as="geometry">
            <mxPoint x="100" y="640" as="targetPoint" />
            <Array as="points">
              <mxPoint x="101" y="540" />
            </Array>
          </mxGeometry>
        </mxCell>
        <mxCell id="9Gnq12phPFpCPruZLT1S-26" style="edgeStyle=orthogonalEdgeStyle;rounded=0;orthogonalLoop=1;jettySize=auto;html=1;" edge="1" parent="1" source="9Gnq12phPFpCPruZLT1S-21">
          <mxGeometry relative="1" as="geometry">
            <mxPoint x="600" y="650" as="targetPoint" />
          </mxGeometry>
        </mxCell>
        <mxCell id="9Gnq12phPFpCPruZLT1S-21" value="版本&amp;gt;=11.29？" style="rhombus;whiteSpace=wrap;html=1;rounded=1;" vertex="1" parent="1">
          <mxGeometry x="255" y="500" width="170" height="80" as="geometry" />
        </mxCell>
        <mxCell id="9Gnq12phPFpCPruZLT1S-27" value="N" style="text;html=1;align=center;verticalAlign=middle;resizable=0;points=[];autosize=1;strokeColor=none;fillColor=none;" vertex="1" parent="1">
          <mxGeometry x="240" y="500" width="30" height="30" as="geometry" />
        </mxCell>
        <mxCell id="9Gnq12phPFpCPruZLT1S-28" value="Y" style="text;html=1;align=center;verticalAlign=middle;resizable=0;points=[];autosize=1;strokeColor=none;fillColor=none;" vertex="1" parent="1">
          <mxGeometry x="400" y="500" width="30" height="30" as="geometry" />
        </mxCell>
        <mxCell id="9Gnq12phPFpCPruZLT1S-29" value="下发全部榜单信息&lt;br&gt;needClientCache都是false&lt;br&gt;个性化榜单内容版本隔离12.3以上" style="whiteSpace=wrap;html=1;rounded=1;" vertex="1" parent="1">
          <mxGeometry x="40" y="640" width="130" height="90" as="geometry" />
        </mxCell>
        <mxCell id="9Gnq12phPFpCPruZLT1S-30" value="" style="whiteSpace=wrap;html=1;rounded=1;" vertex="1" parent="1">
          <mxGeometry x="540" y="790" width="120" height="60" as="geometry" />
        </mxCell>
      </root>
    </mxGraphModel>
  </diagram>
</mxfile>
